<svg version="1.1" xmlns="http://www.w3.org/2000/svg" xmlns:xlink="http://www.w3.org/1999/xlink" width="24.85138" height="24.20111" viewBox="0,0,24.85138,24.20111"><g transform="translate(-227.51181,-167.96195)"><g data-paper-data="{&quot;isPaintingLayer&quot;:true}" fill="none" fill-rule="evenodd" stroke="context-fill" stroke-width="2" stroke-linecap="square" stroke-linejoin="miter" stroke-miterlimit="10" stroke-dasharray="" stroke-dashoffset="0" style="mix-blend-mode: normal"><path d="M233.96489,176.66454v0c0,-1.6015 1.29827,-2.89977 2.89977,-2.89977h11.59875v0c0.76906,0 1.50664,0.30551 2.05045,0.84932c0.54381,0.54381 0.84933,1.28139 0.84933,2.05045v11.59875c0,1.6015 -1.29827,2.89977 -2.89978,2.89977h-11.59875c-1.6015,0 -2.89977,-1.29827 -2.89977,-2.89977z"/><path d="M233.70485,186.36024h-2.29327c-1.6015,0 -2.89977,-1.29826 -2.89977,-2.89977v-11.59875v0c0,-1.6015 1.29827,-2.89977 2.89977,-2.89977h11.59874v0c0.76907,0 1.50664,0.3055 2.05045,0.84932c0.54381,0.54382 0.84933,1.28139 0.84933,2.05045v1.21911"/></g></g></svg>