<svg version="1.1" xmlns="http://www.w3.org/2000/svg" xmlns:xlink="http://www.w3.org/1999/xlink" width="16" height="16" viewBox="0,0,16,16"><g transform="translate(-232,-172)"><g data-paper-data="{&quot;isPaintingLayer&quot;:true}" fill="none" fill-rule="nonzero" stroke-linejoin="miter" stroke-miterlimit="10" stroke-dasharray="" stroke-dashoffset="0" style="mix-blend-mode: normal"><path d="M248,180c0,4.41828 -3.58172,8 -8,8c-4.41828,0 -8,-3.58172 -8,-8c0,-4.41828 3.58172,-8 8,-8c4.41828,0 8,3.58172 8,8zM233,180c0,3.86599 3.13401,7 7,7c3.86599,0 7,-3.13401 7,-7c0,-3.86599 -3.13401,-7 -7,-7c-3.86599,0 -7,3.13401 -7,7z" stroke="none" stroke-width="1" stroke-linecap="butt"/><g stroke="context-fill" stroke-width="1.5" stroke-linecap="round"><path d="M240.93638,185.04924l6.00462,-5.0461"/><path d="M240.934,174.95076l6.00462,5.0461" data-paper-data="{&quot;index&quot;:null}"/></g><g stroke="context-fill" stroke-width="1.5" stroke-linecap="round"><path d="M234.68638,185.04924l6.00462,-5.0461"/><path d="M234.684,174.95076l6.00462,5.0461" data-paper-data="{&quot;index&quot;:null}"/></g></g></g></svg>