<svg width="17" height="22" viewBox="0 0 17 22" fill="none" xmlns="http://www.w3.org/2000/svg">
<path d="M7.36159 22C11.0268 22 13.5987 20.0698 14.9835 16.2802L16.8161 11.2779C17.2742 10.0147 16.8577 8.97382 15.7748 8.58982C14.8065 8.24622 13.8486 8.65044 13.3904 9.69134L12.7136 11.3082C12.6928 11.3486 12.6615 11.379 12.6199 11.379C12.5678 11.379 12.547 11.3386 12.547 11.288V3.18328C12.547 2.00091 11.7869 1.26321 10.6207 1.26321C10.1938 1.26321 9.8085 1.40468 9.51698 1.66744C9.38161 0.636673 8.69438 0 7.66355 0C6.65352 0 5.9455 0.656852 5.78929 1.64722C5.529 1.39459 5.15417 1.26321 4.7793 1.26321C3.69641 1.26321 2.97795 1.99082 2.97795 3.11256V4.23427C2.69682 3.95133 2.28032 3.79973 1.83259 3.79973C0.749695 3.79973 0 4.57787 0 5.7097V14.3905C0 19.1199 2.95715 22 7.36159 22ZM7.30952 20.5953C3.62355 20.5953 1.37446 18.3013 1.37446 14.2288V5.85117C1.37446 5.42672 1.65555 5.12356 2.09288 5.12356C2.51982 5.12356 2.83218 5.42672 2.83218 5.85117V11.0152C2.83218 11.3891 3.14454 11.6417 3.47774 11.6417C3.83178 11.6417 4.15458 11.3891 4.15458 11.0152V3.29443C4.15458 2.8599 4.43571 2.56683 4.8626 2.56683C5.29994 2.56683 5.6019 2.8599 5.6019 3.29443V10.4998C5.6019 10.8737 5.91426 11.1263 6.25786 11.1263C6.61189 11.1263 6.93469 10.8737 6.93469 10.4998V2.04135C6.93469 1.61691 7.22622 1.30361 7.66355 1.30361C8.08005 1.30361 8.38202 1.61691 8.38202 2.04135V10.4998C8.38202 10.8535 8.67354 11.1263 9.03802 11.1263C9.39201 11.1263 9.70441 10.8535 9.70441 10.4998V3.29443C9.70441 2.8599 10.0063 2.56683 10.4333 2.56683C10.8706 2.56683 11.1621 2.8599 11.1621 3.29443V13.2384C11.1621 13.7032 11.4641 14.0368 11.9014 14.0368C12.2763 14.0368 12.5886 13.8751 12.8281 13.3698L14.2442 10.2977C14.4316 9.86312 14.8065 9.64077 15.1917 9.78228C15.6082 9.94397 15.754 10.328 15.5562 10.8535L13.7132 15.8457C12.4429 19.2917 10.2146 20.5953 7.30952 20.5953Z" fill="black"/>
</svg>
