<svg width="12" height="15" viewBox="0 0 12 15" fill="none" xmlns="http://www.w3.org/2000/svg">
<path d="M6 2.99994C6.70132 2.99994 7.37441 3.12061 8 3.34174V4.63666C7.39104 4.35709 6.71398 4.20013 6 4.20013C3.34903 4.20013 1.2002 6.34897 1.2002 8.99994C1.2002 11.6509 3.34903 13.7997 6 13.7997C8.65097 13.7997 10.7998 11.6509 10.7998 8.99994H12C12 12.3136 9.31371 14.9999 6 14.9999C2.68629 14.9999 0 12.3136 0 8.99994C0 5.68623 2.68629 2.99994 6 2.99994Z" fill="context-fill"/>
<line x1="6.26985" y1="1.60703" x2="8.24975" y2="3.58692" stroke="context-fill" stroke-width="1.2" stroke-linecap="round"/>
<line x1="8.24976" y1="3.86977" x2="6.26986" y2="5.84967" stroke="context-fill" stroke-width="1.2" stroke-linecap="round"/>
<line x1="11.399" y1="9.19991" x2="11.399" y2="8.99991" stroke="context-fill" stroke-width="1.2" stroke-linecap="round"/>
</svg>
