<svg width="23" height="19" viewBox="0 0 23 19" fill="none" xmlns="http://www.w3.org/2000/svg">
<g clip-path="url(#clip0_20_104)">
<path d="M0 5.3825C0 4.71931 0.700983 4.26193 1.15 4.74999C1.25052 4.85925 0.744149 5.34268 1.43544 5.39943C1.57736 5.41108 1.70255 5.43309 1.84 5.49999C1.93687 5.54714 2.20996 5.34952 2.3 5.39943C2.70015 5.6212 3.08824 5.9824 2.76 6.24999C2.50282 6.45965 2.17376 6.68884 1.83309 6.91026C1.02654 7.43448 0 6.82896 0 5.86702V5.3825Z" fill="context-fill"/>
<path d="M0 11.655C0 10.9086 0.798355 10.4339 1.45416 10.7903L1.932 11.2265V11.5L1.93719 11.5282C2.01384 11.9448 1.77822 12.3557 1.38 12.5L1.34218 13.0373C1.33308 13.1666 1.28674 13.2906 1.20875 13.3942C0.820776 13.9096 0 13.6352 0 12.9901V11.655Z" fill="context-fill"/>
<path d="M14.0352 0.00488281C16.1486 0.112101 17.8301 1.85995 17.8301 4V5.40918C18.3073 5.14728 18.8443 5.00002 19.4121 5C21.3936 5.00013 23 6.79094 23 9C23 11.2091 21.3936 12.9999 19.4121 13C18.8439 13 18.3074 12.8512 17.8301 12.5889V15L17.8242 15.2061C17.7204 17.2512 16.0803 18.8914 14.0352 18.9951L13.8301 19H4C1.86019 18.9998 0.112119 17.3193 0.00488281 15.2061L0 15V11.9805C0.16967 11.9681 0.304791 11.9489 0.427734 11.9111C0.958553 11.7478 1.38962 11.3718 1.63086 10.8818C1.99145 11.2165 2.43235 11.4004 2.85254 11.4004C3.79118 11.4 4.84082 10.4931 4.84082 9C4.84082 7.50685 3.79118 6.60003 2.85254 6.59961C2.43281 6.59964 1.99139 6.78231 1.63086 7.11621C1.38947 6.627 0.957984 6.25199 0.427734 6.08887C0.304774 6.05106 0.169704 6.03093 0 6.01855V4C0 1.79102 1.79108 0.000255644 4 0H13.8301L14.0352 0.00488281ZM4 1.59961C2.67473 1.59987 1.59961 2.67467 1.59961 4V5.25195C1.98976 5.09 2.41186 5.00001 2.85254 5C4.83384 5.00039 6.44043 6.7911 6.44043 9C6.44043 11.2089 4.83384 12.9996 2.85254 13C2.41155 13 1.98985 12.9084 1.59961 12.7461V15C1.59961 16.3253 2.67473 17.4001 4 17.4004H13.8301C15.1551 17.3999 16.2295 16.3252 16.2295 15V13H16.3574V11.6719C16.6891 11.5034 16.9896 11.2751 17.248 11H18.3291C18.6611 11.2591 19.0444 11.4004 19.4121 11.4004C20.3509 11.4003 21.4004 10.4934 21.4004 9C21.4004 7.50662 20.3509 6.59975 19.4121 6.59961C18.9571 6.59964 18.4757 6.8127 18.1006 7.20215C18.0685 7.23547 18.0437 7.27311 18.0254 7.31348C17.7341 6.43502 17.1296 5.71927 16.3574 5.32715V5H16.2295V4C16.2295 2.67483 15.1551 1.60012 13.8301 1.59961H4Z" fill="context-fill"/>
<path d="M17.756 5H16.376V7H17.756V5Z" fill="context-fill"/>
<path d="M16.376 6.61992C16.376 6.11182 16.7879 5.69992 17.296 5.69992H18.1033C18.1655 5.69992 18.216 5.75042 18.216 5.81271V5.97831C18.216 6.08885 18.3743 6.10751 18.4 6L18.1017 6.97273C18.0028 7.29532 17.7285 7.53323 17.3952 7.5856L17.2057 7.61536C16.77 7.68382 16.376 7.34697 16.376 6.90587V6.61992Z" fill="context-fill"/>
<path d="M16.3334 11.1653C16.4093 10.6778 16.8492 10.332 17.3408 10.3733L17.751 10.5L17.9836 10.685L17.9968 10.6966C18.1947 10.8704 18.3082 11.1211 18.3082 11.3845C18.3082 11.8901 17.8983 12.3 17.3927 12.3H16.3405L16.3149 11.3906C16.3132 11.3303 16.317 11.27 16.3263 11.2105L16.3334 11.1653Z" fill="context-fill"/>
</g>
<defs>
<clipPath id="clip0_20_104">
<rect width="23" height="19" fill="white"/>
</clipPath>
</defs>
</svg>
